<?xml version="1.0" encoding="UTF-8"?>
<svg id="Capa_1" xmlns="http://www.w3.org/2000/svg" version="1.1" viewBox="0 0 93 76">
  <!-- Generator: Adobe Illustrator 30.0.0, SVG Export Plug-In . SVG Version: 2.1.1 Build 123)  -->
  <defs>
    <style>
      .st0 {
        fill: #e96205;
      }
    </style>
  </defs>
  <path class="st0" d="M53.61,75.7h-14.73v-4.66h14.73c10.7,0,19.42-8.39,19.42-18.7v-28.22c0-10.31-8.71-18.7-19.42-18.7h-14.73c-10.7,0-19.42,8.39-19.42,18.7v30.53h-4.84v-30.53C14.63,11.23,25.5.75,38.88.75h14.73c13.38,0,24.25,10.48,24.25,23.37v28.22c0,12.89-10.88,23.37-24.25,23.37Z"/>
  <path class="st0" d="M19.28,54.67h-8.31C4.94,54.67.03,49.95.03,44.15v-7.09C.03,31.26,4.94,26.54,10.96,26.54h8.31v28.14-.02ZM10.96,31.19c-3.37,0-6.09,2.63-6.09,5.86v7.09c0,3.24,2.74,5.86,6.09,5.86h3.47v-18.82h-3.47v.02Z"/>
  <path class="st0" d="M81.53,54.67h-8.31v-28.14h8.31c6.03,0,10.93,4.72,10.93,10.52v7.09c0,5.8-4.91,10.52-10.93,10.52M78.06,49.99h3.47c3.35,0,6.09-2.63,6.09-5.86v-7.09c0-3.24-2.74-5.86-6.09-5.86h-3.47v18.82-.02Z"/>
  <path class="st0" d="M38.93,75.7h-4.84v-16.39h24.32v14.09h-4.84v-9.4h-14.64v11.7Z"/>
</svg>