<?xml version="1.0" encoding="UTF-8"?>
<svg id="Capa_1" xmlns="http://www.w3.org/2000/svg" version="1.1" viewBox="0 0 110.96 76">
  <!-- Generator: Adobe Illustrator 30.0.0, SVG Export Plug-In . SVG Version: 2.1.1 Build 123)  -->
  <defs>
    <style>
      .st0 {
        fill: #ec6101;
      }
    </style>
  </defs>
  <path class="st0" d="M90.02,76l-.88-1.3-13.11-20.98h-41.51s-13.89,22.24-13.89,22.24l-1.6.04H-.29l-.09-2.83v-40.04l.88-.87L31.83.93l1.2-.03h45.66l.87.88,31.33,31.33.03,1.2v41.6l-2.83.09h-18.07ZM5.11,70.51h12.45l13.89-22.24,1.59-.04h46.04s.82,1.33.82,1.33l13.09,20.95h12.44v-35.11l-29.02-29.02h-42.28L5.11,35.41v35.1Z"/>
  <rect class="st0" x="24.29" y="62.16" width="61.96" height="5.49"/>
  <polygon class="st0" points="77.51 37.02 31.99 37.02 31.16 36.32 14.62 23.09 -.42 23.09 -.42 17.61 16.5 17.61 17.29 18.21 33.96 31.53 76.6 31.53 94.31 17.63 95.31 17.61 110.96 17.61 110.96 23.09 96.23 23.09 78.52 37 77.51 37.02"/>
</svg>