<svg width="98" height="76" viewBox="0 0 98 76" fill="none" xmlns="http://www.w3.org/2000/svg">
<path d="M97.1602 26.1702H82.0765L74.024 6.81958C73.5723 5.74456 72.4922 5.04674 71.2941 5.04674H26.5735C25.3558 5.04674 24.256 5.76342 23.8238 6.87626L16.2428 26.1325H0.707414L0.294922 21.4929H12.3737L19.228 4.06598C20.0922 1.87824 22.2722 0.426025 24.7272 0.426025H72.7671C75.1632 0.426025 77.3236 1.84053 78.227 3.97172L85.5528 21.5495H97.5922L97.1797 26.189L97.1602 26.1702Z" fill="#194BFF"/>
<path d="M19.8312 75.3539H11.0205C7.77551 75.3539 5.15979 72.8113 5.15979 69.6996V37.8994H9.97819V67.8782C9.97819 69.434 11.2958 70.7053 12.9085 70.7053H19.8509V66.0376H58.6733V70.6863H24.6694C24.6694 73.2667 22.506 75.3729 19.8312 75.3729" fill="#194BFF"/>
<path d="M62.953 75.2821C62.5351 75.1662 62.1373 74.9535 61.8189 74.6443C61.2619 74.0836 61.0032 73.3103 61.1424 72.5371L62.953 61.8081L84.2417 41.4134C85.8731 39.8476 88.5392 39.8476 90.1707 41.4327L96.3584 47.4642C97.1541 48.2374 97.5918 49.262 97.5918 50.3638C97.5918 51.4658 97.1342 52.4903 96.3384 53.2636L75.0696 73.6389L63.9875 75.3401C63.6295 75.3982 63.2713 75.3789 62.9331 75.2821M67.5092 64.1086L66.4746 70.14L72.7418 69.1734L92.4188 50.3252L87.1863 45.2411L67.5092 64.0892V64.1086Z" fill="#194BFF"/>
<path d="M81.475 46.7617L78.0375 50.0762L87.4774 59.2041L90.9149 55.8895L81.475 46.7617Z" fill="#194BFF"/>
<path d="M43.6441 47.4361L19.6832 42.6761V37.9729L45.7065 43.0933C47.808 43.5104 49.9683 43.5104 52.0501 43.0933L75.5987 38.0298V42.733L53.9749 47.4551C50.5772 48.1188 47.0616 48.1188 43.6638 47.4551" fill="#194BFF"/>
</svg>
