<?xml version="1.0" encoding="UTF-8"?>
<svg id="Capa_1" xmlns="http://www.w3.org/2000/svg" version="1.1" viewBox="0 0 59 76">
  <!-- Generator: Adobe Illustrator 30.0.0, SVG Export Plug-In . SVG Version: 2.1.1 Build 123)  -->
  <defs>
    <style>
      .st0 {
        fill: #ec6104;
      }
    </style>
  </defs>
  <path class="st0" d="M29.66.75C13.7.75.19,13.84.19,29.34s15.66,32.83,26.2,44.5c.04.04,1.74,1.86,3.84,1.86h.18c2.1,0,3.79-1.82,3.83-1.86,9.89-10.95,24.32-28.99,24.32-44.5S48.03.75,29.66.75ZM30.63,70.68c-.08.08-.21.18-.32.24-.11-.08-.24-.16-.32-.24l-1.27-1.41C18.72,58.24,5.04,43.13,5.04,29.33c0-12.96,11.27-23.89,24.6-23.89,16.61,0,24.05,12.01,24.05,23.89,0,10.49-7.77,24.4-23.06,41.36Z"/>
  <path class="st0" d="M29.37,38.34c-6.37,0-11.55-4.99-11.55-11.12s5.18-11.12,11.55-11.12,11.55,4.99,11.55,11.12-5.18,11.12-11.55,11.12ZM29.37,19.85c-4.22,0-7.67,3.3-7.67,7.38s3.43,7.38,7.67,7.38,7.67-3.3,7.67-7.38-3.43-7.38-7.67-7.38Z"/>
</svg>