<?xml version="1.0" encoding="UTF-8"?>
<svg id="Capa_1" xmlns="http://www.w3.org/2000/svg" version="1.1" viewBox="0 0 75 75">
  <!-- Generator: Adobe Illustrator 30.0.0, SVG Export Plug-In . SVG Version: 2.1.1 Build 123)  -->
  <defs>
    <style>
      .st0 {
        fill: #ea6300;
        fill-rule: evenodd;
      }
    </style>
  </defs>
  <path class="st0" d="M63.58,11.58C56.62,4.64,47.36.82,37.49.82,17.16.82.62,17.28.61,37.52c0,6.47,1.7,12.78,4.92,18.35L.3,74.89l19.55-5.1c5.39,2.92,11.45,4.46,17.62,4.47h.02c20.33,0,36.87-16.47,36.88-36.7,0-9.81-3.83-19.03-10.79-25.97ZM37.49,68.05h-.01c-5.5,0-10.9-1.47-15.6-4.25l-1.12-.66-11.6,3.03,3.1-11.26-.73-1.15c-3.07-4.86-4.69-10.47-4.69-16.24,0-16.82,13.76-30.51,30.67-30.51,8.19,0,15.88,3.18,21.67,8.95,5.79,5.77,8.97,13.43,8.97,21.58,0,16.82-13.76,30.51-30.65,30.51ZM54.3,45.2c-.92-.46-5.45-2.68-6.3-2.98-.84-.31-1.46-.46-2.07.46-.61.92-2.38,2.98-2.92,3.6-.54.61-1.07.69-2,.23-.92-.46-3.89-1.43-7.41-4.55-2.74-2.43-4.59-5.44-5.13-6.35-.54-.92-.06-1.41.4-1.87.41-.41.92-1.07,1.38-1.61.46-.54.61-.92.92-1.53.31-.61.15-1.15-.08-1.61-.23-.46-2.07-4.97-2.84-6.81-.75-1.79-1.51-1.55-2.07-1.57-.54-.03-1.15-.03-1.77-.03s-1.61.23-2.46,1.15c-.84.92-3.23,3.14-3.23,7.65s3.3,8.88,3.76,9.49c.46.61,6.5,9.88,15.74,13.85,2.2.94,3.92,1.51,5.25,1.93,2.21.7,4.22.6,5.8.36,1.77-.26,5.45-2.22,6.22-4.36.77-2.14.77-3.98.54-4.36-.23-.38-.84-.61-1.77-1.07Z"/>
</svg>