<?xml version="1.0" encoding="UTF-8"?>
<svg id="Capa_1" xmlns="http://www.w3.org/2000/svg" version="1.1" viewBox="0 0 530.65 151.85">
  <!-- Generator: Adobe Illustrator 30.0.0, SVG Export Plug-In . SVG Version: 2.1.1 Build 123)  -->
  <defs>
    <style>
      .st0 {
        fill: #1d1d1b;
      }
    </style>
  </defs>
  <polygon class="st0" points="424.41 60.1 424.41 33.96 412.76 24.67 355.72 24.67 355.72 74.94 367.36 74.94 367.36 36.29 412.76 36.29 412.76 48.49 376.61 48.49 409.8 74.94 427.81 74.94 409.2 60.1 424.41 60.1"/>
  <polygon class="st0" points="86.26 60.1 86.26 33.96 74.61 24.67 17.56 24.67 17.56 74.94 29.21 74.94 29.21 36.29 74.61 36.29 74.61 48.49 38.46 48.49 71.65 74.94 89.66 74.94 71.04 60.1 86.26 60.1"/>
  <path class="st0" d="M431.34,74.94h15.43l5.25-6.38h39.8l5.25,6.38h15.43l-40.58-50.72-40.58,50.72ZM459.81,57.99l12.12-15.11,12.12,15.11h-24.23Z"/>
  <path class="st0" d="M197.67,24.68v50.26h57.74l11.65-9.28v-31.7l-11.65-9.28h-57.74ZM255.41,63.32h-46.09v-27.03h46.09v27.03Z"/>
  <path class="st0" d="M118.84,24.68v50.26h57.74l11.65-9.28v-31.7l-11.65-9.28h-57.74ZM176.58,63.32h-46.09v-27.03h46.09v27.03Z"/>
  <path class="st0" d="M269.96,74.94h15.43l5.25-6.38h39.8l5.25,6.38h15.43l-40.58-50.72-40.58,50.72ZM298.43,57.99l12.12-15.11,12.12,15.11h-24.23Z"/>
  <rect class="st0" x="96.84" y="24.68" width="11.8" height="50.26"/>
  <g>
    <path class="st0" d="M28.58,98.68c2.17-1.19,4.61-1.78,7.3-1.78,4.06,0,7.41,1.3,10.04,3.9l2.19-2.24c-1.46-1.59-3.25-2.78-5.38-3.59-2.12-.81-4.46-1.21-6.99-1.21-3.36,0-6.37.73-9.04,2.19-2.66,1.46-4.76,3.48-6.28,6.06-1.52,2.59-2.28,5.48-2.28,8.68s.76,6.1,2.28,8.68c1.52,2.59,3.62,4.61,6.28,6.07,2.66,1.46,5.66,2.19,8.99,2.19,2.35,0,4.58-.36,6.71-1.09,2.12-.73,3.96-1.78,5.52-3.14v-12.7h-3.38v11.23c-2.38,1.71-5.28,2.57-8.7,2.57-2.7,0-5.12-.6-7.28-1.81-2.16-1.2-3.85-2.85-5.09-4.95-1.24-2.09-1.86-4.44-1.86-7.04s.62-4.95,1.86-7.06c1.24-2.11,2.94-3.76,5.11-4.95Z"/>
    <polygon class="st0" points="61.38 111.93 78.6 111.93 78.6 108.93 61.38 108.93 61.38 97.09 80.69 97.09 80.69 94.04 57.86 94.04 57.86 127.34 81.41 127.34 81.41 124.29 61.38 124.29 61.38 111.93"/>
    <polygon class="st0" points="93.2 111.93 110.42 111.93 110.42 108.93 93.2 108.93 93.2 97.09 112.52 97.09 112.52 94.04 89.68 94.04 89.68 127.34 113.23 127.34 113.23 124.29 93.2 124.29 93.2 111.93"/>
    <polygon class="st0" points="125.03 94.04 121.51 94.04 121.51 127.34 143.67 127.34 143.67 124.29 125.03 124.29 125.03 94.04"/>
    <polygon class="st0" points="155.8 112.73 144.39 94.04 140.63 94.04 153.95 115.83 153.95 127.34 157.42 127.34 157.42 115.83 170.74 94.04 167.22 94.04 155.8 112.73"/>
    <path class="st0" d="M198.57,94.04l-15.22,33.3h3.66l4-8.9h18.55l4,8.9h3.71l-15.22-33.3h-3.47ZM192.29,115.59l7.99-17.89,7.99,17.89h-15.98Z"/>
    <path class="st0" d="M245.71,112.97c0,3.87-.87,6.75-2.62,8.66-1.74,1.9-4.28,2.85-7.61,2.85s-5.82-.95-7.56-2.85c-1.74-1.9-2.62-4.79-2.62-8.66v-18.93h-3.52v19.08c0,4.73,1.21,8.32,3.62,10.8,2.41,2.47,5.77,3.71,10.08,3.71s7.67-1.24,10.06-3.71c2.39-2.47,3.59-6.07,3.59-10.8v-19.08h-3.42v18.93Z"/>
    <polygon class="st0" points="253.84 97.09 265.54 97.09 265.54 127.34 269.06 127.34 269.06 97.09 280.76 97.09 280.76 94.04 253.84 94.04 253.84 97.09"/>
    <path class="st0" d="M309.38,95.94c-2.65-1.46-5.62-2.19-8.92-2.19s-6.29.74-8.97,2.21-4.77,3.5-6.28,6.07c-1.51,2.57-2.26,5.45-2.26,8.66s.75,6.09,2.26,8.66c1.51,2.57,3.6,4.59,6.28,6.06,2.68,1.47,5.67,2.21,8.97,2.21s6.27-.73,8.92-2.19c2.65-1.46,4.73-3.48,6.26-6.07,1.52-2.58,2.28-5.48,2.28-8.68s-.76-6.1-2.28-8.68c-1.52-2.58-3.61-4.61-6.26-6.06ZM312.59,117.75c-1.21,2.11-2.87,3.76-4.99,4.95-2.12,1.19-4.5,1.78-7.13,1.78s-5.02-.59-7.16-1.78c-2.14-1.19-3.82-2.84-5.04-4.95-1.22-2.11-1.83-4.46-1.83-7.06s.61-4.95,1.83-7.06c1.22-2.11,2.9-3.76,5.04-4.95,2.14-1.19,4.53-1.78,7.16-1.78s5.01.59,7.13,1.78c2.12,1.19,3.79,2.84,4.99,4.95,1.2,2.11,1.81,4.46,1.81,7.06s-.6,4.96-1.81,7.06Z"/>
    <path class="st0" d="M345.77,98.68c2.17-1.19,4.61-1.78,7.3-1.78,4.06,0,7.41,1.3,10.04,3.9l2.19-2.24c-1.46-1.59-3.25-2.78-5.38-3.59-2.12-.81-4.46-1.21-6.99-1.21-3.36,0-6.37.73-9.04,2.19-2.66,1.46-4.76,3.48-6.28,6.06-1.52,2.59-2.28,5.48-2.28,8.68s.76,6.1,2.28,8.68c1.52,2.59,3.62,4.61,6.28,6.07,2.66,1.46,5.66,2.19,8.99,2.19,2.35,0,4.58-.36,6.71-1.09,2.12-.73,3.96-1.78,5.52-3.14v-12.7h-3.38v11.23c-2.38,1.71-5.28,2.57-8.7,2.57-2.7,0-5.12-.6-7.28-1.81-2.16-1.2-3.85-2.85-5.09-4.95-1.24-2.09-1.86-4.44-1.86-7.04s.62-4.95,1.86-7.06c1.24-2.11,2.94-3.76,5.11-4.95Z"/>
    <path class="st0" d="M399.14,112.05c1.32-1.79,1.97-3.99,1.97-6.59,0-3.55-1.21-6.34-3.62-8.37-2.41-2.03-5.74-3.04-9.99-3.04h-12.46v33.3h3.52v-10.56h8.94c.92,0,1.81-.05,2.66-.14l7.61,10.7h3.85l-8.13-11.42c2.44-.79,4.32-2.08,5.64-3.88ZM387.41,113.78h-8.85v-16.7h8.85c3.3,0,5.82.72,7.56,2.16,1.74,1.44,2.62,3.51,2.62,6.21s-.87,4.68-2.62,6.14c-1.74,1.46-4.27,2.19-7.56,2.19Z"/>
    <path class="st0" d="M432.91,95.94c-2.65-1.46-5.62-2.19-8.92-2.19s-6.29.74-8.97,2.21c-2.68,1.47-4.77,3.5-6.28,6.07-1.51,2.57-2.26,5.45-2.26,8.66s.75,6.09,2.26,8.66c1.51,2.57,3.6,4.59,6.28,6.06,2.68,1.47,5.67,2.21,8.97,2.21s6.27-.73,8.92-2.19c2.65-1.46,4.73-3.48,6.26-6.07,1.52-2.58,2.28-5.48,2.28-8.68s-.76-6.1-2.28-8.68c-1.52-2.58-3.61-4.61-6.26-6.06ZM436.12,117.75c-1.21,2.11-2.87,3.76-4.99,4.95-2.12,1.19-4.5,1.78-7.13,1.78s-5.02-.59-7.16-1.78c-2.14-1.19-3.82-2.84-5.04-4.95-1.22-2.11-1.83-4.46-1.83-7.06s.61-4.95,1.83-7.06c1.22-2.11,2.9-3.76,5.04-4.95,2.14-1.19,4.53-1.78,7.16-1.78s5.01.59,7.13,1.78c2.12,1.19,3.79,2.84,4.99,4.95,1.2,2.11,1.81,4.46,1.81,7.06s-.6,4.96-1.81,7.06Z"/>
    <path class="st0" d="M472.99,112.97c0,3.87-.87,6.75-2.62,8.66-1.74,1.9-4.28,2.85-7.61,2.85s-5.82-.95-7.56-2.85c-1.74-1.9-2.62-4.79-2.62-8.66v-18.93h-3.52v19.08c0,4.73,1.21,8.32,3.62,10.8,2.41,2.47,5.77,3.71,10.08,3.71s7.67-1.24,10.06-3.71c2.39-2.47,3.59-6.07,3.59-10.8v-19.08h-3.42v18.93Z"/>
    <path class="st0" d="M509.47,97.09c-2.41-2.03-5.74-3.04-9.99-3.04h-12.46v33.3h3.52v-10.51h8.94c4.25,0,7.58-1.01,9.99-3.02,2.41-2.01,3.62-4.8,3.62-8.35s-1.21-6.34-3.62-8.37ZM506.95,111.57c-1.74,1.44-4.27,2.16-7.56,2.16h-8.85v-16.65h8.85c3.3,0,5.82.72,7.56,2.16,1.74,1.44,2.62,3.51,2.62,6.21s-.87,4.67-2.62,6.11Z"/>
  </g>
</svg>