<svg xmlns="http://www.w3.org/2000/svg" version="1.1" xmlns:xlink="http://www.w3.org/1999/xlink" width="638" height="332"><svg width="638" height="332" viewBox="0 0 638 332" fill="none" xmlns="http://www.w3.org/2000/svg">
<path d="M178.91 78.9623C231.452 82.283 283.995 84.9304 317.915 84.9304C351.835 84.9304 404.377 82.283 456.919 78.9623L460.213 0.887561C415.538 0.290753 365.915 0 317.915 0C269.915 0 220.291 0.306055 175.616 0.887561L178.926 78.9623H178.91Z" fill="black"></path>
<path d="M2.19881 65.9309C3.55685 66.0534 85.6016 72.9855 170.253 78.4486L166.975 1.0625C92.267 2.13369 33.0592 4.03124 21.5549 6.72453C2.85442 11.1011 0.294421 25.4857 0.091494 35.0806C-0.0177741 39.6408 -0.0177741 51.9901 1.24661 65.8544L2.21442 65.9309H2.19881Z" fill="black"></path>
<path d="M465.547 78.4639C550.214 72.9855 632.243 66.0534 633.602 65.9463L634.569 65.8238C635.818 51.9748 635.818 39.6255 635.709 35.0806C635.506 25.4857 632.946 11.1011 614.23 6.72453C602.725 4.03124 543.518 2.13369 468.81 1.0625L465.531 78.4639H465.547Z" fill="black"></path>
<path d="M465.02 86.9145L458.011 167.621C500.906 160.154 539.743 152.181 555.743 148.018C591.037 138.852 612.734 128.844 624.223 108.828C629.14 100.243 631.997 87.2205 633.636 74.3662C625.581 75.0395 546.424 81.6656 465.02 86.9145Z" fill="black"></path>
<path d="M456.338 87.422C403.999 90.7274 351.753 93.3442 317.911 93.3442C284.069 93.3442 231.824 90.7274 179.484 87.422L186.571 169.078C235.929 177.479 288.893 184.87 317.911 184.87C346.93 184.87 399.909 177.494 449.252 169.078L456.338 87.422Z" fill="black"></path>
<path d="M170.803 86.9145C89.3828 81.6656 10.2259 75.0395 2.17126 74.3662C3.81029 87.2052 6.65126 100.243 11.5839 108.828C23.0727 128.844 44.7546 138.852 80.0638 148.018C96.0638 152.181 134.901 160.154 177.796 167.621L170.803 86.9145Z" fill="black"></path>
<path d="M15.3198 331.139C6.84163 331.139 -0.000366211 324.383 -0.000366211 316.121V255.316C-0.000366211 247.053 6.89121 240.297 15.3198 240.297H121.619V255.851H17.5013V315.489H104.117V293.471H41.4482V277.82H121.619V331.091H15.3198V331.139Z" fill="black"></path>
<path d="M163.163 331.139C154.734 331.139 147.843 324.383 147.843 316.121V240.297H266.09V255.851H165.345V277.869H263.264V293.519H165.345V315.537H266.09V331.188H163.213L163.163 331.139Z" fill="black"></path>
<path d="M448.291 331.137C439.813 331.137 432.971 324.381 432.971 316.119V240.198H450.473V315.487H537.584V331.137H448.291Z" fill="black"></path>
<path d="M305.46 331.139C297.032 331.139 290.14 324.383 290.14 316.121V240.297H408.388V255.851H307.642V277.869H405.611V293.519H307.642V315.537H408.388V331.188H305.51L305.46 331.139Z" fill="black"></path>
<path d="M562.683 331.137V296.336L505.418 240.198H527.977L571.458 282.776L614.89 240.198H637.449L580.184 296.336V331.137H562.683Z" fill="black"></path>
</svg><style>@media (prefers-color-scheme: light) { :root { filter: none; } }
@media (prefers-color-scheme: dark) { :root { filter: none; } }
</style></svg>